name C:\Users\u0101727\Documents\MyRepositories\upper-imu-dc\OpenSim\subject0\MA\ResultsMA\grid_4nodes_9dim\angles_26.mot
datacolumns 10
datarows 42
range 2600.01000000 2600.42000000
endheader 
time	clav_prot	clav_elev	scapula_abduction	scapula_elevation	scapula_upward_rot	scapula_winging	plane_elv	shoulder_elv	axial_rot	
       2600.01000000	        -50.00000000	        -10.00000000	         -3.33333333	          3.33333333	         90.00000000	        -10.00000000	         90.00000000	        100.00000000	         90.00000000	
       2600.02000000	        -38.33333333	        -10.00000000	         -3.33333333	          3.33333333	         90.00000000	        -10.00000000	         90.00000000	        100.00000000	         90.00000000	
       2600.03000000	        -26.66666667	        -10.00000000	         -3.33333333	          3.33333333	         90.00000000	        -10.00000000	         90.00000000	        100.00000000	         90.00000000	
       2600.04000000	        -15.00000000	        -10.00000000	         -3.33333333	          3.33333333	         90.00000000	        -10.00000000	         90.00000000	        100.00000000	         90.00000000	
       2600.05000000	        -50.00000000	          0.00000000	         -3.33333333	          3.33333333	         90.00000000	        -10.00000000	         90.00000000	        100.00000000	         90.00000000	
       2600.06000000	        -38.33333333	          0.00000000	         -3.33333333	          3.33333333	         90.00000000	        -10.00000000	         90.00000000	        100.00000000	         90.00000000	
       2600.07000000	        -26.66666667	          0.00000000	         -3.33333333	          3.33333333	         90.00000000	        -10.00000000	         90.00000000	        100.00000000	         90.00000000	
       2600.08000000	        -15.00000000	          0.00000000	         -3.33333333	          3.33333333	         90.00000000	        -10.00000000	         90.00000000	        100.00000000	         90.00000000	
       2600.09000000	        -50.00000000	         10.00000000	         -3.33333333	          3.33333333	         90.00000000	        -10.00000000	         90.00000000	        100.00000000	         90.00000000	
       2600.10000000	        -38.33333333	         10.00000000	         -3.33333333	          3.33333333	         90.00000000	        -10.00000000	         90.00000000	        100.00000000	         90.00000000	
       2600.11000000	        -26.66666667	         10.00000000	         -3.33333333	          3.33333333	         90.00000000	        -10.00000000	         90.00000000	        100.00000000	         90.00000000	
       2600.12000000	        -15.00000000	         10.00000000	         -3.33333333	          3.33333333	         90.00000000	        -10.00000000	         90.00000000	        100.00000000	         90.00000000	
       2600.13000000	        -50.00000000	         20.00000000	         -3.33333333	          3.33333333	         90.00000000	        -10.00000000	         90.00000000	        100.00000000	         90.00000000	
       2600.14000000	        -38.33333333	         20.00000000	         -3.33333333	          3.33333333	         90.00000000	        -10.00000000	         90.00000000	        100.00000000	         90.00000000	
       2600.15000000	        -26.66666667	         20.00000000	         -3.33333333	          3.33333333	         90.00000000	        -10.00000000	         90.00000000	        100.00000000	         90.00000000	
       2600.16000000	        -15.00000000	         20.00000000	         -3.33333333	          3.33333333	         90.00000000	        -10.00000000	         90.00000000	        100.00000000	         90.00000000	
       2600.17000000	        -50.00000000	        -10.00000000	         15.00000000	          3.33333333	         90.00000000	        -10.00000000	         90.00000000	        100.00000000	         90.00000000	
       2600.18000000	        -38.33333333	        -10.00000000	         15.00000000	          3.33333333	         90.00000000	        -10.00000000	         90.00000000	        100.00000000	         90.00000000	
       2600.19000000	        -26.66666667	        -10.00000000	         15.00000000	          3.33333333	         90.00000000	        -10.00000000	         90.00000000	        100.00000000	         90.00000000	
       2600.20000000	        -15.00000000	        -10.00000000	         15.00000000	          3.33333333	         90.00000000	        -10.00000000	         90.00000000	        100.00000000	         90.00000000	
       2600.21000000	        -50.00000000	          0.00000000	         15.00000000	          3.33333333	         90.00000000	        -10.00000000	         90.00000000	        100.00000000	         90.00000000	
       2600.22000000	        -38.33333333	          0.00000000	         15.00000000	          3.33333333	         90.00000000	        -10.00000000	         90.00000000	        100.00000000	         90.00000000	
       2600.23000000	        -26.66666667	          0.00000000	         15.00000000	          3.33333333	         90.00000000	        -10.00000000	         90.00000000	        100.00000000	         90.00000000	
       2600.24000000	        -15.00000000	          0.00000000	         15.00000000	          3.33333333	         90.00000000	        -10.00000000	         90.00000000	        100.00000000	         90.00000000	
       2600.25000000	        -50.00000000	         10.00000000	         15.00000000	          3.33333333	         90.00000000	        -10.00000000	         90.00000000	        100.00000000	         90.00000000	
       2600.26000000	        -38.33333333	         10.00000000	         15.00000000	          3.33333333	         90.00000000	        -10.00000000	         90.00000000	        100.00000000	         90.00000000	
       2600.27000000	        -26.66666667	         10.00000000	         15.00000000	          3.33333333	         90.00000000	        -10.00000000	         90.00000000	        100.00000000	         90.00000000	
       2600.28000000	        -15.00000000	         10.00000000	         15.00000000	          3.33333333	         90.00000000	        -10.00000000	         90.00000000	        100.00000000	         90.00000000	
       2600.29000000	        -50.00000000	         20.00000000	         15.00000000	          3.33333333	         90.00000000	        -10.00000000	         90.00000000	        100.00000000	         90.00000000	
       2600.30000000	        -38.33333333	         20.00000000	         15.00000000	          3.33333333	         90.00000000	        -10.00000000	         90.00000000	        100.00000000	         90.00000000	
       2600.31000000	        -26.66666667	         20.00000000	         15.00000000	          3.33333333	         90.00000000	        -10.00000000	         90.00000000	        100.00000000	         90.00000000	
       2600.32000000	        -15.00000000	         20.00000000	         15.00000000	          3.33333333	         90.00000000	        -10.00000000	         90.00000000	        100.00000000	         90.00000000	
       2600.33000000	        -50.00000000	        -10.00000000	        -40.00000000	         10.00000000	         90.00000000	        -10.00000000	         90.00000000	        100.00000000	         90.00000000	
       2600.34000000	        -38.33333333	        -10.00000000	        -40.00000000	         10.00000000	         90.00000000	        -10.00000000	         90.00000000	        100.00000000	         90.00000000	
       2600.35000000	        -26.66666667	        -10.00000000	        -40.00000000	         10.00000000	         90.00000000	        -10.00000000	         90.00000000	        100.00000000	         90.00000000	
       2600.36000000	        -15.00000000	        -10.00000000	        -40.00000000	         10.00000000	         90.00000000	        -10.00000000	         90.00000000	        100.00000000	         90.00000000	
       2600.37000000	        -50.00000000	          0.00000000	        -40.00000000	         10.00000000	         90.00000000	        -10.00000000	         90.00000000	        100.00000000	         90.00000000	
       2600.38000000	        -38.33333333	          0.00000000	        -40.00000000	         10.00000000	         90.00000000	        -10.00000000	         90.00000000	        100.00000000	         90.00000000	
       2600.39000000	        -26.66666667	          0.00000000	        -40.00000000	         10.00000000	         90.00000000	        -10.00000000	         90.00000000	        100.00000000	         90.00000000	
       2600.40000000	        -15.00000000	          0.00000000	        -40.00000000	         10.00000000	         90.00000000	        -10.00000000	         90.00000000	        100.00000000	         90.00000000	
       2600.41000000	        -50.00000000	         10.00000000	        -40.00000000	         10.00000000	         90.00000000	        -10.00000000	         90.00000000	        100.00000000	         90.00000000	
       2600.42000000	        -38.33333333	         10.00000000	        -40.00000000	         10.00000000	         90.00000000	        -10.00000000	         90.00000000	        100.00000000	         90.00000000	
